<svg xmlns="http://www.w3.org/2000/svg" xmlns:xlink="http://www.w3.org/1999/xlink" width="500" zoomAndPan="magnify" viewBox="0 0 375 374.999991" height="500" preserveAspectRatio="xMidYMid meet" version="1.0"><defs><clipPath id="67e2df7ee6"><path d="M 18 20 L 355 20 L 355 357 L 18 357 Z M 18 20 " clip-rule="nonzero"/></clipPath><clipPath id="3c39885f2b"><path d="M 354.425781 188.203125 C 354.425781 190.949219 354.355469 193.695312 354.222656 196.441406 C 354.085938 199.183594 353.886719 201.921875 353.617188 204.65625 C 353.347656 207.390625 353.011719 210.117188 352.609375 212.832031 C 352.203125 215.550781 351.734375 218.253906 351.199219 220.949219 C 350.664062 223.644531 350.0625 226.324219 349.394531 228.988281 C 348.726562 231.652344 347.996094 234.300781 347.199219 236.929688 C 346.402344 239.558594 345.539062 242.164062 344.613281 244.75 C 343.691406 247.335938 342.703125 249.898438 341.652344 252.4375 C 340.601562 254.976562 339.488281 257.484375 338.3125 259.96875 C 337.140625 262.453125 335.90625 264.90625 334.609375 267.328125 C 333.316406 269.75 331.960938 272.140625 330.550781 274.496094 C 329.136719 276.851562 327.667969 279.171875 326.144531 281.457031 C 324.617188 283.742188 323.039062 285.984375 321.402344 288.191406 C 319.765625 290.398438 318.078125 292.5625 316.335938 294.6875 C 314.59375 296.808594 312.796875 298.890625 310.953125 300.925781 C 309.109375 302.960938 307.21875 304.949219 305.273438 306.890625 C 303.332031 308.835938 301.34375 310.726562 299.308594 312.574219 C 297.273438 314.417969 295.195312 316.210938 293.074219 317.953125 C 290.949219 319.695312 288.785156 321.386719 286.582031 323.023438 C 284.375 324.660156 282.128906 326.238281 279.847656 327.765625 C 277.5625 329.292969 275.242188 330.761719 272.886719 332.175781 C 270.53125 333.585938 268.144531 334.941406 265.722656 336.234375 C 263.300781 337.53125 260.847656 338.765625 258.363281 339.9375 C 255.882812 341.113281 253.371094 342.226562 250.835938 343.277344 C 248.296875 344.328125 245.738281 345.316406 243.152344 346.242188 C 240.566406 347.167969 237.957031 348.027344 235.332031 348.828125 C 232.703125 349.625 230.054688 350.355469 227.394531 351.023438 C 224.730469 351.691406 222.050781 352.292969 219.355469 352.828125 C 216.664062 353.363281 213.957031 353.835938 211.242188 354.238281 C 208.523438 354.640625 205.800781 354.976562 203.066406 355.246094 C 200.335938 355.515625 197.597656 355.71875 194.851562 355.851562 C 192.109375 355.988281 189.367188 356.054688 186.621094 356.054688 C 183.875 356.054688 181.128906 355.988281 178.386719 355.851562 C 175.644531 355.71875 172.90625 355.515625 170.171875 355.246094 C 167.4375 354.976562 164.714844 354.640625 161.996094 354.238281 C 159.28125 353.835938 156.574219 353.363281 153.882812 352.828125 C 151.1875 352.292969 148.511719 351.691406 145.847656 351.023438 C 143.183594 350.355469 140.535156 349.625 137.910156 348.828125 C 135.28125 348.027344 132.671875 347.167969 130.085938 346.242188 C 127.503906 345.316406 124.941406 344.328125 122.402344 343.277344 C 119.867188 342.226562 117.355469 341.113281 114.875 339.9375 C 112.390625 338.765625 109.9375 337.53125 107.515625 336.234375 C 105.09375 334.941406 102.707031 333.585938 100.351562 332.175781 C 97.996094 330.761719 95.675781 329.292969 93.390625 327.765625 C 91.109375 326.238281 88.863281 324.660156 86.660156 323.023438 C 84.453125 321.386719 82.289062 319.695312 80.164062 317.953125 C 78.042969 316.210938 75.964844 314.417969 73.929688 312.574219 C 71.894531 310.726562 69.90625 308.835938 67.964844 306.890625 C 66.023438 304.949219 64.128906 302.960938 62.285156 300.925781 C 60.441406 298.890625 58.648438 296.808594 56.90625 294.6875 C 55.164062 292.5625 53.472656 290.398438 51.835938 288.191406 C 50.203125 285.984375 48.621094 283.742188 47.09375 281.457031 C 45.570312 279.171875 44.101562 276.851562 42.6875 274.496094 C 41.277344 272.140625 39.921875 269.75 38.628906 267.328125 C 37.335938 264.90625 36.101562 262.453125 34.925781 259.96875 C 33.75 257.484375 32.640625 254.976562 31.589844 252.4375 C 30.539062 249.898438 29.550781 247.335938 28.625 244.75 C 27.699219 242.164062 26.835938 239.558594 26.039062 236.929688 C 25.242188 234.300781 24.511719 231.652344 23.84375 228.988281 C 23.175781 226.324219 22.574219 223.644531 22.039062 220.949219 C 21.503906 218.257812 21.035156 215.550781 20.632812 212.832031 C 20.226562 210.117188 19.890625 207.390625 19.621094 204.65625 C 19.355469 201.921875 19.152344 199.183594 19.015625 196.441406 C 18.882812 193.695312 18.816406 190.949219 18.816406 188.203125 C 18.816406 185.457031 18.882812 182.710938 19.015625 179.96875 C 19.152344 177.222656 19.355469 174.484375 19.621094 171.753906 C 19.890625 169.019531 20.226562 166.292969 20.632812 163.574219 C 21.035156 160.859375 21.503906 158.152344 22.039062 155.457031 C 22.574219 152.765625 23.175781 150.085938 23.84375 147.421875 C 24.511719 144.753906 25.242188 142.109375 26.039062 139.480469 C 26.835938 136.851562 27.699219 134.242188 28.625 131.65625 C 29.550781 129.070312 30.539062 126.507812 31.589844 123.972656 C 32.640625 121.433594 33.75 118.921875 34.925781 116.4375 C 36.101562 113.957031 37.335938 111.503906 38.628906 109.082031 C 39.921875 106.65625 41.277344 104.269531 42.6875 101.910156 C 44.101562 99.554688 45.570312 97.234375 47.09375 94.953125 C 48.621094 92.667969 50.203125 90.421875 51.835938 88.214844 C 53.472656 86.007812 55.164062 83.84375 56.90625 81.722656 C 58.648438 79.597656 60.441406 77.519531 62.285156 75.484375 C 64.128906 73.449219 66.023438 71.457031 67.964844 69.515625 C 69.90625 67.574219 71.894531 65.679688 73.929688 63.835938 C 75.964844 61.992188 78.042969 60.195312 80.164062 58.453125 C 82.289062 56.710938 84.453125 55.023438 86.660156 53.386719 C 88.863281 51.75 91.109375 50.167969 93.390625 48.640625 C 95.675781 47.117188 97.996094 45.648438 100.351562 44.234375 C 102.707031 42.820312 105.09375 41.46875 107.515625 40.171875 C 109.9375 38.878906 112.390625 37.644531 114.875 36.46875 C 117.355469 35.296875 119.867188 34.183594 122.402344 33.132812 C 124.941406 32.078125 127.503906 31.089844 130.085938 30.164062 C 132.671875 29.242188 135.28125 28.378906 137.910156 27.582031 C 140.535156 26.785156 143.183594 26.050781 145.847656 25.382812 C 148.511719 24.71875 151.1875 24.117188 153.882812 23.578125 C 156.574219 23.042969 159.28125 22.574219 161.996094 22.171875 C 164.714844 21.769531 167.4375 21.433594 170.171875 21.164062 C 172.90625 20.894531 175.644531 20.691406 178.386719 20.554688 C 181.128906 20.421875 183.875 20.355469 186.621094 20.355469 C 189.367188 20.355469 192.109375 20.421875 194.851562 20.554688 C 197.597656 20.691406 200.335938 20.894531 203.066406 21.164062 C 205.800781 21.433594 208.523438 21.769531 211.242188 22.171875 C 213.957031 22.574219 216.664062 23.042969 219.355469 23.578125 C 222.050781 24.117188 224.730469 24.71875 227.394531 25.382812 C 230.054688 26.050781 232.703125 26.785156 235.332031 27.582031 C 237.957031 28.378906 240.566406 29.242188 243.152344 30.164062 C 245.738281 31.089844 248.296875 32.078125 250.835938 33.132812 C 253.371094 34.183594 255.882812 35.296875 258.363281 36.46875 C 260.847656 37.644531 263.300781 38.878906 265.722656 40.171875 C 268.144531 41.46875 270.53125 42.820312 272.886719 44.234375 C 275.242188 45.648438 277.5625 47.117188 279.847656 48.640625 C 282.128906 50.167969 284.375 51.75 286.582031 53.386719 C 288.785156 55.023438 290.949219 56.710938 293.074219 58.453125 C 295.195312 60.195312 297.273438 61.992188 299.308594 63.835938 C 301.34375 65.679688 303.332031 67.574219 305.273438 69.515625 C 307.21875 71.457031 309.109375 73.449219 310.953125 75.484375 C 312.796875 77.519531 314.59375 79.597656 316.335938 81.722656 C 318.078125 83.84375 319.765625 86.007812 321.402344 88.214844 C 323.039062 90.421875 324.617188 92.667969 326.144531 94.953125 C 327.667969 97.234375 329.136719 99.554688 330.550781 101.910156 C 331.960938 104.269531 333.316406 106.65625 334.609375 109.082031 C 335.90625 111.503906 337.140625 113.957031 338.3125 116.4375 C 339.488281 118.921875 340.601562 121.433594 341.652344 123.972656 C 342.703125 126.507812 343.691406 129.070312 344.613281 131.65625 C 345.539062 134.242188 346.402344 136.851562 347.199219 139.480469 C 347.996094 142.109375 348.726562 144.753906 349.394531 147.421875 C 350.0625 150.085938 350.664062 152.765625 351.199219 155.457031 C 351.734375 158.152344 352.203125 160.859375 352.609375 163.574219 C 353.011719 166.292969 353.347656 169.019531 353.617188 171.753906 C 353.886719 174.484375 354.085938 177.222656 354.222656 179.96875 C 354.355469 182.710938 354.425781 185.457031 354.425781 188.203125 Z M 354.425781 188.203125 " clip-rule="nonzero"/></clipPath><linearGradient x1="0.0000000178339" gradientTransform="matrix(335.609302, 0, 0, 335.700002, 18.814837, 20.35416)" y1="0.0000000178339" x2="1" gradientUnits="userSpaceOnUse" y2="1" id="18ff4d2793"><stop stop-opacity="1" stop-color="rgb(59.999084%, 0%, 0%)" offset="0"/><stop stop-opacity="1" stop-color="rgb(59.841919%, 0%, 0%)" offset="0.015625"/><stop stop-opacity="1" stop-color="rgb(59.529114%, 0%, 0%)" offset="0.03125"/><stop stop-opacity="1" stop-color="rgb(59.217834%, 0%, 0%)" offset="0.046875"/><stop stop-opacity="1" stop-color="rgb(58.905029%, 0%, 0%)" offset="0.0625"/><stop stop-opacity="1" stop-color="rgb(58.592224%, 0%, 0%)" offset="0.078125"/><stop stop-opacity="1" stop-color="rgb(58.279419%, 0%, 0%)" offset="0.09375"/><stop stop-opacity="1" stop-color="rgb(57.966614%, 0%, 0%)" offset="0.109375"/><stop stop-opacity="1" stop-color="rgb(57.655334%, 0%, 0%)" offset="0.125"/><stop stop-opacity="1" stop-color="rgb(57.342529%, 0%, 0%)" offset="0.140625"/><stop stop-opacity="1" stop-color="rgb(57.029724%, 0%, 0%)" offset="0.15625"/><stop stop-opacity="1" stop-color="rgb(56.716919%, 0%, 0%)" offset="0.171875"/><stop stop-opacity="1" stop-color="rgb(56.404114%, 0%, 0%)" offset="0.1875"/><stop stop-opacity="1" stop-color="rgb(56.092834%, 0%, 0%)" offset="0.203125"/><stop stop-opacity="1" stop-color="rgb(55.780029%, 0%, 0%)" offset="0.21875"/><stop stop-opacity="1" stop-color="rgb(55.467224%, 0%, 0%)" offset="0.234375"/><stop stop-opacity="1" stop-color="rgb(55.154419%, 0%, 0%)" offset="0.25"/><stop stop-opacity="1" stop-color="rgb(54.841614%, 0%, 0%)" offset="0.265625"/><stop stop-opacity="1" stop-color="rgb(54.530334%, 0%, 0%)" offset="0.28125"/><stop stop-opacity="1" stop-color="rgb(54.217529%, 0%, 0%)" offset="0.296875"/><stop stop-opacity="1" stop-color="rgb(53.904724%, 0%, 0%)" offset="0.3125"/><stop stop-opacity="1" stop-color="rgb(53.591919%, 0%, 0%)" offset="0.328125"/><stop stop-opacity="1" stop-color="rgb(53.279114%, 0%, 0%)" offset="0.34375"/><stop stop-opacity="1" stop-color="rgb(52.967834%, 0%, 0%)" offset="0.359375"/><stop stop-opacity="1" stop-color="rgb(52.655029%, 0%, 0%)" offset="0.375"/><stop stop-opacity="1" stop-color="rgb(52.342224%, 0%, 0%)" offset="0.390625"/><stop stop-opacity="1" stop-color="rgb(52.029419%, 0%, 0%)" offset="0.40625"/><stop stop-opacity="1" stop-color="rgb(51.716614%, 0%, 0%)" offset="0.421875"/><stop stop-opacity="1" stop-color="rgb(51.405334%, 0%, 0%)" offset="0.4375"/><stop stop-opacity="1" stop-color="rgb(51.092529%, 0%, 0%)" offset="0.453125"/><stop stop-opacity="1" stop-color="rgb(50.779724%, 0%, 0%)" offset="0.46875"/><stop stop-opacity="1" stop-color="rgb(50.466919%, 0%, 0%)" offset="0.484375"/><stop stop-opacity="1" stop-color="rgb(50.154114%, 0%, 0%)" offset="0.5"/><stop stop-opacity="1" stop-color="rgb(49.998474%, 0%, 0%)" offset="0.5"/><stop stop-opacity="1" stop-color="rgb(49.842834%, 0%, 0%)" offset="0.5"/><stop stop-opacity="1" stop-color="rgb(49.687195%, 0%, 0%)" offset="0.515625"/><stop stop-opacity="1" stop-color="rgb(49.530029%, 0%, 0%)" offset="0.53125"/><stop stop-opacity="1" stop-color="rgb(49.217224%, 0%, 0%)" offset="0.546875"/><stop stop-opacity="1" stop-color="rgb(48.904419%, 0%, 0%)" offset="0.5625"/><stop stop-opacity="1" stop-color="rgb(48.591614%, 0%, 0%)" offset="0.578125"/><stop stop-opacity="1" stop-color="rgb(48.280334%, 0%, 0%)" offset="0.59375"/><stop stop-opacity="1" stop-color="rgb(47.967529%, 0%, 0%)" offset="0.609375"/><stop stop-opacity="1" stop-color="rgb(47.654724%, 0%, 0%)" offset="0.625"/><stop stop-opacity="1" stop-color="rgb(47.341919%, 0%, 0%)" offset="0.640625"/><stop stop-opacity="1" stop-color="rgb(47.029114%, 0%, 0%)" offset="0.65625"/><stop stop-opacity="1" stop-color="rgb(46.717834%, 0%, 0%)" offset="0.671875"/><stop stop-opacity="1" stop-color="rgb(46.405029%, 0%, 0%)" offset="0.6875"/><stop stop-opacity="1" stop-color="rgb(46.092224%, 0%, 0%)" offset="0.703125"/><stop stop-opacity="1" stop-color="rgb(45.779419%, 0%, 0%)" offset="0.71875"/><stop stop-opacity="1" stop-color="rgb(45.466614%, 0%, 0%)" offset="0.734375"/><stop stop-opacity="1" stop-color="rgb(45.155334%, 0%, 0%)" offset="0.75"/><stop stop-opacity="1" stop-color="rgb(44.842529%, 0%, 0%)" offset="0.765625"/><stop stop-opacity="1" stop-color="rgb(44.529724%, 0%, 0%)" offset="0.78125"/><stop stop-opacity="1" stop-color="rgb(44.216919%, 0%, 0%)" offset="0.796875"/><stop stop-opacity="1" stop-color="rgb(43.904114%, 0%, 0%)" offset="0.8125"/><stop stop-opacity="1" stop-color="rgb(43.592834%, 0%, 0%)" offset="0.828125"/><stop stop-opacity="1" stop-color="rgb(43.280029%, 0%, 0%)" offset="0.84375"/><stop stop-opacity="1" stop-color="rgb(42.967224%, 0%, 0%)" offset="0.859375"/><stop stop-opacity="1" stop-color="rgb(42.654419%, 0%, 0%)" offset="0.875"/><stop stop-opacity="1" stop-color="rgb(42.341614%, 0%, 0%)" offset="0.890625"/><stop stop-opacity="1" stop-color="rgb(42.030334%, 0%, 0%)" offset="0.90625"/><stop stop-opacity="1" stop-color="rgb(41.717529%, 0%, 0%)" offset="0.921875"/><stop stop-opacity="1" stop-color="rgb(41.404724%, 0%, 0%)" offset="0.9375"/><stop stop-opacity="1" stop-color="rgb(41.091919%, 0%, 0%)" offset="0.953125"/><stop stop-opacity="1" stop-color="rgb(40.779114%, 0%, 0%)" offset="0.96875"/><stop stop-opacity="1" stop-color="rgb(40.467834%, 0%, 0%)" offset="0.984375"/><stop stop-opacity="1" stop-color="rgb(40.155029%, 0%, 0%)" offset="1"/></linearGradient><clipPath id="1762a0dc73"><path d="M 167 328 L 206 328 L 206 374.886719 L 167 374.886719 Z M 167 328 " clip-rule="nonzero"/></clipPath></defs><g clip-path="url(#67e2df7ee6)"><g clip-path="url(#3c39885f2b)"><path fill="url(#18ff4d2793)" d="M 18.816406 20.355469 L 18.816406 356.054688 L 354.425781 356.054688 L 354.425781 20.355469 Z M 18.816406 20.355469 " fill-rule="nonzero"/></g></g><path fill="#ffffff" d="M 261.199219 188.203125 C 261.199219 189.425781 261.167969 190.644531 261.109375 191.863281 C 261.050781 193.085938 260.960938 194.300781 260.839844 195.515625 C 260.71875 196.730469 260.570312 197.941406 260.390625 199.148438 C 260.214844 200.359375 260.003906 201.558594 259.765625 202.757812 C 259.527344 203.957031 259.261719 205.144531 258.964844 206.332031 C 258.667969 207.515625 258.34375 208.691406 257.988281 209.859375 C 257.632812 211.027344 257.25 212.1875 256.839844 213.335938 C 256.429688 214.484375 255.988281 215.625 255.523438 216.753906 C 255.054688 217.878906 254.5625 218.996094 254.039062 220.101562 C 253.515625 221.203125 252.96875 222.292969 252.394531 223.371094 C 251.816406 224.445312 251.214844 225.507812 250.589844 226.554688 C 249.960938 227.601562 249.308594 228.632812 248.628906 229.648438 C 247.953125 230.664062 247.25 231.664062 246.523438 232.644531 C 245.796875 233.625 245.042969 234.585938 244.269531 235.53125 C 243.496094 236.472656 242.699219 237.398438 241.878906 238.300781 C 241.058594 239.207031 240.21875 240.089844 239.355469 240.953125 C 238.492188 241.816406 237.609375 242.660156 236.703125 243.480469 C 235.800781 244.300781 234.875 245.097656 233.933594 245.871094 C 232.988281 246.644531 232.027344 247.394531 231.046875 248.125 C 230.066406 248.851562 229.070312 249.554688 228.054688 250.230469 C 227.039062 250.910156 226.007812 251.5625 224.960938 252.191406 C 223.914062 252.820312 222.851562 253.421875 221.777344 253.996094 C 220.699219 254.570312 219.609375 255.121094 218.507812 255.640625 C 217.402344 256.164062 216.289062 256.660156 215.160156 257.125 C 214.03125 257.59375 212.894531 258.03125 211.746094 258.445312 C 210.59375 258.855469 209.4375 259.238281 208.269531 259.59375 C 207.101562 259.945312 205.925781 260.273438 204.742188 260.570312 C 203.558594 260.863281 202.367188 261.132812 201.167969 261.371094 C 199.972656 261.609375 198.769531 261.816406 197.5625 261.996094 C 196.355469 262.175781 195.144531 262.324219 193.929688 262.445312 C 192.714844 262.566406 191.496094 262.65625 190.277344 262.714844 C 189.058594 262.773438 187.839844 262.804688 186.621094 262.804688 C 185.398438 262.804688 184.179688 262.773438 182.960938 262.714844 C 181.742188 262.65625 180.523438 262.566406 179.308594 262.445312 C 178.09375 262.324219 176.882812 262.175781 175.675781 261.996094 C 174.46875 261.816406 173.265625 261.609375 172.070312 261.371094 C 170.871094 261.132812 169.683594 260.863281 168.5 260.570312 C 167.3125 260.273438 166.136719 259.945312 164.96875 259.59375 C 163.800781 259.238281 162.644531 258.855469 161.496094 258.445312 C 160.34375 258.03125 159.207031 257.59375 158.078125 257.125 C 156.953125 256.660156 155.835938 256.164062 154.734375 255.640625 C 153.628906 255.121094 152.539062 254.570312 151.460938 253.996094 C 150.386719 253.421875 149.324219 252.820312 148.277344 252.191406 C 147.230469 251.5625 146.199219 250.910156 145.183594 250.230469 C 144.171875 249.554688 143.171875 248.851562 142.191406 248.125 C 141.210938 247.394531 140.25 246.644531 139.304688 245.871094 C 138.363281 245.097656 137.4375 244.300781 136.535156 243.480469 C 135.628906 242.660156 134.746094 241.816406 133.882812 240.953125 C 133.019531 240.089844 132.179688 239.207031 131.359375 238.300781 C 130.539062 237.398438 129.742188 236.472656 128.96875 235.53125 C 128.195312 234.585938 127.445312 233.625 126.714844 232.644531 C 125.988281 231.664062 125.285156 230.664062 124.609375 229.648438 C 123.929688 228.632812 123.277344 227.601562 122.648438 226.554688 C 122.023438 225.507812 121.421875 224.445312 120.847656 223.371094 C 120.269531 222.292969 119.722656 221.203125 119.199219 220.101562 C 118.679688 218.996094 118.183594 217.878906 117.714844 216.753906 C 117.25 215.625 116.808594 214.484375 116.398438 213.335938 C 115.988281 212.1875 115.605469 211.027344 115.25 209.859375 C 114.898438 208.691406 114.570312 207.515625 114.273438 206.332031 C 113.976562 205.144531 113.710938 203.957031 113.472656 202.757812 C 113.234375 201.558594 113.027344 200.359375 112.847656 199.148438 C 112.667969 197.941406 112.519531 196.730469 112.398438 195.515625 C 112.277344 194.300781 112.1875 193.085938 112.128906 191.863281 C 112.070312 190.644531 112.039062 189.425781 112.039062 188.203125 C 112.039062 186.984375 112.070312 185.761719 112.128906 184.542969 C 112.1875 183.324219 112.277344 182.105469 112.398438 180.890625 C 112.519531 179.675781 112.667969 178.464844 112.847656 177.257812 C 113.027344 176.050781 113.234375 174.847656 113.472656 173.652344 C 113.710938 172.453125 113.976562 171.261719 114.273438 170.078125 C 114.570312 168.894531 114.898438 167.71875 115.25 166.550781 C 115.605469 165.378906 115.988281 164.222656 116.398438 163.070312 C 116.808594 161.921875 117.25 160.785156 117.714844 159.65625 C 118.183594 158.527344 118.679688 157.414062 119.199219 156.308594 C 119.722656 155.203125 120.269531 154.113281 120.847656 153.039062 C 121.421875 151.960938 122.023438 150.898438 122.648438 149.851562 C 123.277344 148.804688 123.929688 147.773438 124.609375 146.757812 C 125.285156 145.742188 125.988281 144.746094 126.714844 143.765625 C 127.445312 142.785156 128.195312 141.820312 128.96875 140.878906 C 129.742188 139.933594 130.539062 139.011719 131.359375 138.105469 C 132.179688 137.203125 133.019531 136.316406 133.882812 135.453125 C 134.746094 134.589844 135.628906 133.75 136.535156 132.929688 C 137.4375 132.109375 138.363281 131.3125 139.304688 130.539062 C 140.25 129.761719 141.210938 129.011719 142.191406 128.285156 C 143.171875 127.558594 144.171875 126.855469 145.183594 126.175781 C 146.199219 125.5 147.230469 124.84375 148.277344 124.21875 C 149.324219 123.589844 150.386719 122.988281 151.460938 122.414062 C 152.539062 121.835938 153.628906 121.289062 154.734375 120.765625 C 155.835938 120.246094 156.953125 119.75 158.078125 119.28125 C 159.207031 118.816406 160.34375 118.375 161.496094 117.964844 C 162.644531 117.554688 163.800781 117.171875 164.96875 116.816406 C 166.136719 116.460938 167.3125 116.136719 168.5 115.839844 C 169.683594 115.542969 170.871094 115.277344 172.070312 115.039062 C 173.265625 114.800781 174.46875 114.589844 175.675781 114.410156 C 176.882812 114.234375 178.09375 114.082031 179.308594 113.964844 C 180.523438 113.84375 181.742188 113.753906 182.960938 113.695312 C 184.179688 113.632812 185.398438 113.605469 186.621094 113.605469 C 187.839844 113.605469 189.058594 113.632812 190.277344 113.695312 C 191.496094 113.753906 192.714844 113.84375 193.929688 113.964844 C 195.144531 114.082031 196.355469 114.234375 197.5625 114.410156 C 198.769531 114.589844 199.972656 114.800781 201.167969 115.039062 C 202.367188 115.277344 203.558594 115.542969 204.742188 115.839844 C 205.925781 116.136719 207.101562 116.460938 208.269531 116.816406 C 209.4375 117.171875 210.59375 117.554688 211.746094 117.964844 C 212.894531 118.375 214.03125 118.816406 215.160156 119.28125 C 216.289062 119.75 217.402344 120.246094 218.507812 120.765625 C 219.609375 121.289062 220.699219 121.835938 221.777344 122.414062 C 222.851562 122.988281 223.914062 123.589844 224.960938 124.21875 C 226.007812 124.84375 227.039062 125.5 228.054688 126.175781 C 229.070312 126.855469 230.066406 127.558594 231.046875 128.285156 C 232.027344 129.011719 232.988281 129.761719 233.933594 130.539062 C 234.875 131.3125 235.800781 132.109375 236.703125 132.929688 C 237.609375 133.75 238.492188 134.589844 239.355469 135.453125 C 240.21875 136.316406 241.058594 137.203125 241.878906 138.105469 C 242.699219 139.011719 243.496094 139.933594 244.269531 140.878906 C 245.042969 141.820312 245.796875 142.785156 246.523438 143.765625 C 247.25 144.746094 247.953125 145.742188 248.628906 146.757812 C 249.308594 147.773438 249.960938 148.804688 250.589844 149.851562 C 251.214844 150.898438 251.816406 151.960938 252.394531 153.039062 C 252.96875 154.113281 253.515625 155.203125 254.039062 156.308594 C 254.5625 157.414062 255.054688 158.527344 255.523438 159.65625 C 255.988281 160.785156 256.429688 161.921875 256.839844 163.070312 C 257.25 164.222656 257.632812 165.378906 257.988281 166.550781 C 258.34375 167.71875 258.667969 168.894531 258.964844 170.078125 C 259.261719 171.261719 259.527344 172.453125 259.765625 173.652344 C 260.003906 174.847656 260.214844 176.050781 260.390625 177.257812 C 260.570312 178.464844 260.71875 179.675781 260.839844 180.890625 C 260.960938 182.105469 261.050781 183.324219 261.109375 184.542969 C 261.167969 185.761719 261.199219 186.984375 261.199219 188.203125 Z M 261.199219 188.203125 " fill-opacity="0.2" fill-rule="nonzero"/><path fill="#ffffff" d="M 214.585938 188.203125 C 214.585938 189.121094 214.542969 190.035156 214.453125 190.945312 C 214.363281 191.859375 214.226562 192.761719 214.050781 193.660156 C 213.871094 194.558594 213.648438 195.449219 213.382812 196.324219 C 213.117188 197.203125 212.808594 198.0625 212.457031 198.910156 C 212.109375 199.757812 211.714844 200.582031 211.285156 201.390625 C 210.851562 202.199219 210.382812 202.984375 209.875 203.746094 C 209.363281 204.507812 208.820312 205.242188 208.238281 205.953125 C 207.65625 206.660156 207.042969 207.335938 206.394531 207.984375 C 205.746094 208.632812 205.070312 209.246094 204.363281 209.828125 C 203.652344 210.410156 202.917969 210.957031 202.15625 211.464844 C 201.394531 211.972656 200.609375 212.445312 199.804688 212.875 C 198.996094 213.308594 198.167969 213.699219 197.320312 214.050781 C 196.476562 214.398438 195.613281 214.707031 194.738281 214.972656 C 193.863281 215.242188 192.972656 215.460938 192.074219 215.640625 C 191.175781 215.820312 190.273438 215.953125 189.359375 216.042969 C 188.449219 216.132812 187.535156 216.179688 186.621094 216.179688 C 185.703125 216.179688 184.789062 216.132812 183.878906 216.042969 C 182.964844 215.953125 182.0625 215.820312 181.164062 215.640625 C 180.265625 215.460938 179.378906 215.242188 178.5 214.972656 C 177.625 214.707031 176.761719 214.398438 175.917969 214.050781 C 175.070312 213.699219 174.242188 213.308594 173.4375 212.875 C 172.628906 212.445312 171.84375 211.972656 171.082031 211.464844 C 170.320312 210.957031 169.585938 210.410156 168.878906 209.828125 C 168.167969 209.246094 167.492188 208.632812 166.84375 207.984375 C 166.195312 207.335938 165.582031 206.660156 165 205.953125 C 164.417969 205.242188 163.875 204.507812 163.367188 203.746094 C 162.855469 202.984375 162.386719 202.199219 161.953125 201.390625 C 161.523438 200.582031 161.132812 199.757812 160.78125 198.910156 C 160.429688 198.0625 160.121094 197.203125 159.855469 196.324219 C 159.589844 195.449219 159.367188 194.558594 159.1875 193.660156 C 159.011719 192.761719 158.875 191.859375 158.785156 190.945312 C 158.695312 190.035156 158.652344 189.121094 158.652344 188.203125 C 158.652344 187.289062 158.695312 186.375 158.785156 185.460938 C 158.875 184.550781 159.011719 183.644531 159.1875 182.746094 C 159.367188 181.847656 159.589844 180.960938 159.855469 180.082031 C 160.121094 179.207031 160.429688 178.34375 160.78125 177.5 C 161.132812 176.652344 161.523438 175.824219 161.953125 175.015625 C 162.386719 174.207031 162.855469 173.425781 163.367188 172.660156 C 163.875 171.898438 164.417969 171.164062 165 170.457031 C 165.582031 169.75 166.195312 169.070312 166.84375 168.421875 C 167.492188 167.773438 168.167969 167.160156 168.878906 166.578125 C 169.585938 165.996094 170.320312 165.453125 171.082031 164.945312 C 171.84375 164.433594 172.628906 163.964844 173.4375 163.53125 C 174.242188 163.101562 175.070312 162.710938 175.917969 162.359375 C 176.761719 162.007812 177.625 161.699219 178.5 161.433594 C 179.378906 161.167969 180.265625 160.945312 181.164062 160.765625 C 182.0625 160.589844 182.964844 160.453125 183.878906 160.363281 C 184.789062 160.273438 185.703125 160.230469 186.621094 160.230469 C 187.535156 160.230469 188.449219 160.273438 189.359375 160.363281 C 190.273438 160.453125 191.175781 160.589844 192.074219 160.765625 C 192.972656 160.945312 193.863281 161.167969 194.738281 161.433594 C 195.613281 161.699219 196.476562 162.007812 197.320312 162.359375 C 198.167969 162.710938 198.996094 163.101562 199.804688 163.53125 C 200.609375 163.964844 201.394531 164.433594 202.15625 164.945312 C 202.917969 165.453125 203.652344 165.996094 204.363281 166.578125 C 205.070312 167.160156 205.746094 167.773438 206.394531 168.421875 C 207.042969 169.070312 207.65625 169.75 208.238281 170.457031 C 208.820312 171.164062 209.363281 171.898438 209.875 172.660156 C 210.382812 173.425781 210.851562 174.207031 211.285156 175.015625 C 211.714844 175.824219 212.109375 176.652344 212.457031 177.5 C 212.808594 178.34375 213.117188 179.207031 213.382812 180.082031 C 213.648438 180.960938 213.871094 181.847656 214.050781 182.746094 C 214.226562 183.644531 214.363281 184.550781 214.453125 185.460938 C 214.542969 186.375 214.585938 187.289062 214.585938 188.203125 Z M 214.585938 188.203125 " fill-opacity="1" fill-rule="nonzero"/><path fill="#ffffff" d="M 186.621094 1.703125 L 205.265625 48.328125 L 167.972656 48.328125 Z M 186.621094 1.703125 " fill-opacity="1" fill-rule="nonzero"/><g clip-path="url(#1762a0dc73)"><path fill="#ffffff" d="M 186.621094 374.703125 L 205.265625 328.078125 L 167.972656 328.078125 Z M 186.621094 374.703125 " fill-opacity="1" fill-rule="nonzero"/></g><path fill="#ffffff" d="M 0.167969 188.203125 L 46.78125 206.855469 L 46.78125 169.554688 Z M 0.167969 188.203125 " fill-opacity="1" fill-rule="nonzero"/><path fill="#ffffff" d="M 373.070312 188.203125 L 326.457031 206.855469 L 326.457031 169.554688 Z M 373.070312 188.203125 " fill-opacity="1" fill-rule="nonzero"/><path fill="#ffffff" d="M 54.800781 56.347656 L 96.5625 87.214844 L 72.511719 111.367188 Z M 54.800781 56.347656 " fill-opacity="1" fill-rule="nonzero"/><path fill="#ffffff" d="M 318.4375 320.058594 L 287.582031 278.285156 L 263.4375 302.34375 Z M 318.4375 320.058594 " fill-opacity="1" fill-rule="nonzero"/><path fill="#ffffff" d="M 54.800781 320.058594 L 72.511719 265.042969 L 109.800781 302.34375 Z M 54.800781 320.058594 " fill-opacity="1" fill-rule="nonzero"/><path fill="#ffffff" d="M 318.4375 56.347656 L 263.4375 74.066406 L 300.726562 111.367188 Z M 318.4375 56.347656 " fill-opacity="1" fill-rule="nonzero"/></svg>